<svg xmlns="http://www.w3.org/2000/svg" xmlns:xlink="http://www.w3.org/1999/xlink" viewBox="0 0 430 430" width="430" height="430" preserveAspectRatio="xMidYMid meet" style="width: 100%; height: 100%; transform: translate3d(0px, 0px, 0px); content-visibility: visible;"><defs><clipPath id="__lottie_element_7715"><rect width="430" height="430" x="0" y="0"/></clipPath><clipPath id="__lottie_element_7717"><path d="M0,0 L430,0 L430,430 L0,430z"/></clipPath><g id="__lottie_element_7724"><g transform="matrix(3.700000047683716,0,0,3.700000047683716,185.3994140625,250.15069580078125)" opacity="1" style="display: block;"><path class="primary" fill="rgb(0,0,0)" fill-opacity="1" d=" M16.632999420166016,24.89900016784668 C16.632999420166016,24.89900016784668 -33.53200149536133,24.89900016784668 -33.53200149536133,24.89900016784668 C-33.53200149536133,24.89900016784668 -33.53200149536133,2 -33.53200149536133,2 C-33.53200149536133,-10.647000312805176 -23.280000686645508,-20.89900016784668 -10.633000373840332,-20.89900016784668 C-10.633000373840332,-20.89900016784668 16.632999420166016,-20.89900016784668 16.632999420166016,-20.89900016784668 C29.280000686645508,-20.89900016784668 39.53200149536133,-10.647000312805176 39.53200149536133,2 C39.53200149536133,2 39.53200149536133,2 39.53200149536133,2 C39.53200149536133,14.647000312805176 29.280000686645508,24.89900016784668 16.632999420166016,24.89900016784668z"/><g opacity="1" transform="matrix(1,0,0,1,0,0)"/></g></g><filter id="__lottie_element_7730" filterUnits="objectBoundingBox" x="0%" y="0%" width="100%" height="100%"><feComponentTransfer in="SourceGraphic"><feFuncA type="table" tableValues="1.0 0.0"/></feComponentTransfer></filter><mask id="__lottie_element_7724_2" mask-type="alpha" maskUnits="userSpaceOnUse"><g filter="url(#__lottie_element_7730)"><rect width="430" height="430" x="0" y="0" fill="#ffffff" opacity="0"/><use xmlns:ns1="http://www.w3.org/1999/xlink" ns1:href="#__lottie_element_7724"/></g></mask></defs><g clip-path="url(#__lottie_element_7715)"><g clip-path="url(#__lottie_element_7717)" transform="matrix(1,0,0,1,0,0)" opacity="1" style="display: block;"><g mask="url(#__lottie_element_7724_2)" style="display: block;"><g transform="matrix(-3.700000047683716,-0.00002960511665150989,-0.00002960511665150989,3.700000047683716,248.30133056640625,150.24969482421875)" opacity="1"><g opacity="1" transform="matrix(1,0,0,1,0,0)"><path stroke-linecap="round" stroke-linejoin="round" fill-opacity="0" class="primary" stroke="rgb(0,0,0)" stroke-opacity="1" stroke-width="3.5" d=" M16.632999420166016,24.89900016784668 C16.632999420166016,24.89900016784668 -33.53200149536133,24.89900016784668 -33.53200149536133,24.89900016784668 C-33.53200149536133,24.89900016784668 -33.53200149536133,2 -33.53200149536133,2 C-33.53200149536133,-10.647000312805176 -23.280000686645508,-20.89900016784668 -10.633000373840332,-20.89900016784668 C-10.633000373840332,-20.89900016784668 16.632999420166016,-20.89900016784668 16.632999420166016,-20.89900016784668 C29.280000686645508,-20.89900016784668 39.53200149536133,-10.647000312805176 39.53200149536133,2 C39.53200149536133,2 39.53200149536133,2 39.53200149536133,2 C39.53200149536133,14.647000312805176 29.280000686645508,24.89900016784668 16.632999420166016,24.89900016784668z"/></g></g></g><g transform="matrix(3.700000047683716,0,0,3.700000047683716,185.3994140625,250.15069580078125)" opacity="1" style="display: block;"><g opacity="1" transform="matrix(1,0,0,1,0,0)"><path stroke-linecap="round" stroke-linejoin="round" fill-opacity="0" class="secondary" stroke="rgb(0,0,0)" stroke-opacity="1" stroke-width="3.5" d=" M16.632999420166016,24.89900016784668 C16.632999420166016,24.89900016784668 -33.53200149536133,24.89900016784668 -33.53200149536133,24.89900016784668 C-33.53200149536133,24.89900016784668 -33.53200149536133,2 -33.53200149536133,2 C-33.53200149536133,-10.647000312805176 -23.280000686645508,-20.89900016784668 -10.633000373840332,-20.89900016784668 C-10.633000373840332,-20.89900016784668 16.632999420166016,-20.89900016784668 16.632999420166016,-20.89900016784668 C29.280000686645508,-20.89900016784668 39.53200149536133,-10.647000312805176 39.53200149536133,2 C39.53200149536133,2 39.53200149536133,2 39.53200149536133,2 C39.53200149536133,14.647000312805176 29.280000686645508,24.89900016784668 16.632999420166016,24.89900016784668z"/></g></g></g></g></svg>