<svg xmlns="http://www.w3.org/2000/svg" xmlns:xlink="http://www.w3.org/1999/xlink" viewBox="0 0 430 430" width="430" height="430" preserveAspectRatio="xMidYMid meet" style="width: 100%; height: 100%; transform: translate3d(0px, 0px, 0px); content-visibility: visible;"><defs><clipPath id="__lottie_element_5209"><rect width="430" height="430" x="0" y="0"/></clipPath><clipPath id="__lottie_element_5211"><path d="M0,0 L430,0 L430,430 L0,430z"/></clipPath><clipPath id="__lottie_element_5219"><path d="M0,0 L416,0 L416,416 L0,416z"/></clipPath><g id="__lottie_element_5222"><g transform="matrix(0.7071067690849304,-0.7071067690849304,0.7071067690849304,0.7071067690849304,215,215)" opacity="1" style="display: block;"><g opacity="1" transform="matrix(1,0,0,1,0,0)"><path fill="rgb(255,0,0)" fill-opacity="1" d=" M0,-167.5 C92.44325256347656,-167.5 167.5,-92.44325256347656 167.5,0 C167.5,92.44325256347656 92.44325256347656,167.5 0,167.5 C-92.44325256347656,167.5 -167.5,92.44325256347656 -167.5,0 C-167.5,-92.44325256347656 -92.44325256347656,-167.5 0,-167.5z"/></g></g></g><mask id="__lottie_element_5222_1" mask-type="alpha"><use xmlns:ns1="http://www.w3.org/1999/xlink" ns1:href="#__lottie_element_5222"/></mask></defs><g clip-path="url(#__lottie_element_5209)"><g clip-path="url(#__lottie_element_5211)" transform="matrix(1,0,0,1,0,0)" opacity="1" style="display: block;"><g mask="url(#__lottie_element_5222_1)" style="display: block;"><g clip-path="url(#__lottie_element_5219)" transform="matrix(0.9999999403953552,0,0,0.9999999403953552,11.500024795532227,6.499365329742432)" opacity="1"><g transform="matrix(1,0,0,1,205.19000244140625,248.31201171875)" opacity="1" style="display: block;"><g opacity="1" transform="matrix(1,0,0,1,0,0)"><path stroke-linecap="round" stroke-linejoin="round" fill-opacity="0" class="secondary" stroke="rgb(0,0,0)" stroke-opacity="1" stroke-width="12" d=" M-30.231000900268555,15.267999649047852 C-35.84199905395508,19.851999282836914 -39.42499923706055,26.82699966430664 -39.42499923706055,34.63800048828125 C-39.42499923706055,34.63800048828125 -39.42499923706055,142.5 -39.42499923706055,142.5 C-39.42499923706055,142.5 39.8650016784668,142.5 39.8650016784668,142.5 C39.8650016784668,142.5 39.8650016784668,34.63800048828125 39.8650016784668,34.63800048828125 C39.8650016784668,26.825000762939453 36.28200149536133,19.849000930786133 30.667999267578125,15.265000343322754"/></g></g><g transform="matrix(1,0,0,1,205.19000244140625,248.31298828125)" opacity="1" style="display: block;"><g opacity="1" transform="matrix(1,0,0,1,0,0)"><path stroke-linecap="round" stroke-linejoin="round" fill-opacity="0" class="secondary" stroke="rgb(0,0,0)" stroke-opacity="1" stroke-width="12" d=" M30.667999267578125,15.265000343322754 C76.08200073242188,10.348999977111816 96.69000244140625,-8.319999694824219 96.69000244140625,-55.99599838256836 C96.69000244140625,-75.51699829101562 92.21099853515625,-90.17500305175781 84.01200103759766,-101.01699829101562 C85.08699798583984,-103.43199920654297 94.49299621582031,-125.7760009765625 82.46099853515625,-142.3350067138672 C63.70899963378906,-144.3070068359375 49.803001403808594,-128.07000732421875 46.512001037597656,-123.8270034790039 C33.1609992980957,-127.2979965209961 17.558000564575195,-128.6790008544922 0.2199999988079071,-128.6790008544922 C-17.083999633789062,-128.6790008544922 -32.698001861572266,-127.3030014038086 -46.08700180053711,-123.84700012207031 C-49.40599822998047,-128.1219940185547 -63.29899978637695,-144.3040008544922 -82.02100372314453,-142.3350067138672 C-93.69599914550781,-126.26799774169922 -85.18599700927734,-104.75399780273438 -83.68900299072266,-101.28500366210938 C-92.08499908447266,-90.41699981689453 -96.69000244140625,-75.6780014038086 -96.69000244140625,-55.99599838256836 C-96.69000244140625,-8.3100004196167 -75.76699829101562,10.357000350952148 -30.231000900268555,15.267999649047852"/></g></g><g transform="matrix(1,0,0,1,123.67300415039062,295.25299072265625)" opacity="1" style="display: block;"><g opacity="1" transform="matrix(1,0,0,1,0,0)"><path stroke-linecap="round" stroke-linejoin="round" fill-opacity="0" class="secondary" stroke="rgb(0,0,0)" stroke-opacity="1" stroke-width="12" d=" M41.590999603271484,-4.446000099182129 C-6.451000213623047,10.123000144958496 1.7760000228881836,-12.005000114440918 -23.409000396728516,-30.945999145507812 C-35.99800109863281,-40.41400146484375 -47.310001373291016,-21.920000076293945 -38.909000396728516,-15.446000099182129 C-16.82200050354004,1.5750000476837158 -22.92799949645996,11.02400016784668 -4.908999919891357,25.054000854492188 C10.607999801635742,37.13600158691406 30.257999420166016,32.72100067138672 41.590999603271484,28.554000854492188"/></g></g></g></g><g transform="matrix(0.7071067690849304,-0.7071067690849304,0.7071067690849304,0.7071067690849304,215,215)" opacity="1" style="display: block;"><g opacity="1" transform="matrix(1,0,0,1,0,0)"><path stroke-linecap="round" stroke-linejoin="round" fill-opacity="0" class="primary" stroke="rgb(0,0,0)" stroke-opacity="1" stroke-width="12" d=" M0,-167.5 C92.44325256347656,-167.5 167.5,-92.44325256347656 167.5,0 C167.5,92.44325256347656 92.44325256347656,167.5 0,167.5 C-92.44325256347656,167.5 -167.5,92.44325256347656 -167.5,0 C-167.5,-92.44325256347656 -92.44325256347656,-167.5 0,-167.5z"/></g></g></g></g></svg>