<svg xmlns="http://www.w3.org/2000/svg" xmlns:xlink="http://www.w3.org/1999/xlink" viewBox="0 0 430 430" width="430" height="430" preserveAspectRatio="xMidYMid meet" style="width: 100%; height: 100%; transform: translate3d(0px, 0px, 0px); content-visibility: visible;"><defs><clipPath id="__lottie_element_6835"><rect width="430" height="430" x="0" y="0"/></clipPath><clipPath id="__lottie_element_6837"><path d="M0,0 L430,0 L430,430 L0,430z"/></clipPath><clipPath id="__lottie_element_6842"><path d="M0,0 L430,0 L430,430 L0,430z"/></clipPath></defs><g clip-path="url(#__lottie_element_6835)"><g clip-path="url(#__lottie_element_6837)" transform="matrix(1,0,0,1,0,0)" opacity="1" style="display: block;"><g clip-path="url(#__lottie_element_6842)" transform="matrix(1,0,0,1,0,0)" opacity="1" style="display: block;"><g transform="matrix(1,0,0,1,294.5,272.5)" opacity="1" style="display: block;"><g opacity="1" transform="matrix(1,0,0,1,0,0)"><path stroke-linecap="round" stroke-linejoin="round" fill-opacity="0" class="secondary" stroke="rgb(0,0,0)" stroke-opacity="1" stroke-width="12" d=" M35.189598083496094,33.5 C35.189598083496094,33.5 -29.59073257446289,33.5 -29.59073257446289,33.5 M35.189598083496094,33.5 C35.189598083496094,33.5 35.189598083496094,0 35.189598083496094,0 C35.189598083496094,0 35.189598083496094,-33.5 35.189598083496094,-33.5 C35.189598083496094,-33.5 -29.59073257446289,-33.5 -29.59073257446289,-33.5 C-29.59073257446289,-33.5 -29.59073257446289,33.5 -29.59073257446289,33.5"/></g></g><g transform="matrix(1,0,0,1,137.5,272.5)" opacity="1" style="display: block;"><g opacity="1" transform="matrix(1,0,0,1,0,0)"><path stroke-linecap="round" stroke-linejoin="round" fill-opacity="0" class="secondary" stroke="rgb(0,0,0)" stroke-opacity="1" stroke-width="12" d=" M41.285404205322266,33.5 C41.285404205322266,33.5 -23.49492835998535,33.5 -23.49492835998535,33.5 M41.285404205322266,33.5 C41.285404205322266,33.5 41.285404205322266,-33.5 41.285404205322266,-33.5 C41.285404205322266,-33.5 -23.49492835998535,-33.5 -23.49492835998535,-33.5 C-23.49492835998535,-33.5 -23.49492835998535,33.5 -23.49492835998535,33.5"/></g></g><g transform="matrix(1,0,0,1,215.5,273.5)" opacity="1" style="display: block;"><g opacity="1" transform="matrix(1,0,0,1,0,0)"><path stroke-linecap="round" stroke-linejoin="round" fill-opacity="0" class="secondary" stroke="rgb(0,0,0)" stroke-opacity="1" stroke-width="12" d=" M179.35540771484375,69.5 C179.35540771484375,69.5 179.35540771484375,2.5 179.35540771484375,2.5 M179.35540771484375,69.5 C179.35540771484375,69.5 179.35540771484375,2.5 179.35540771484375,2.5 M179.35540771484375,69.5 C179.35540771484375,69.5 179.35540771484375,2.5 179.35540771484375,2.5 M179.35540771484375,69.5 C179.35540771484375,69.5 179.35540771484375,2.5 179.35540771484375,2.5 M179.35540771484375,69.5 C179.35540771484375,69.5 179.35540771484375,2.5 179.35540771484375,2.5 M179.35540771484375,69.5 C179.35540771484375,69.5 179.35540771484375,2.5 179.35540771484375,2.5 M179.4718475341797,69.5 C179.4718475341797,69.5 158.97979736328125,69.5 158.97979736328125,69.5 M159.44552612304688,2.5 C159.44552612304688,2.5 159.44552612304688,-59.705631256103516 159.44552612304688,-59.705631256103516 C159.44552612304688,-59.705631256103516 159.44552612304688,-59.705631256103516 159.44552612304688,-59.705631256103516 C159.44552612304688,-59.705631256103516 159.44552612304688,2.5 159.44552612304688,2.5 M179.4718475341797,69.5 C179.4718475341797,69.5 179.4718475341797,2.5 179.4718475341797,2.5 C179.4718475341797,2.5 158.97979736328125,2.5 158.97979736328125,2.5 C158.97979736328125,2.5 158.97979736328125,69.5 158.97979736328125,69.5"/></g></g><g transform="matrix(5.275599956512451,0,0,5.275599956512451,583.4199829101562,190.02000427246094)" opacity="1" style="display: none;"><g opacity="1" transform="matrix(1,0,0,1,0,0)"><path stroke-linecap="round" stroke-linejoin="round" fill-opacity="0" class="primary" stroke="rgb(0,0,0)" stroke-opacity="1" stroke-width="2.5" d=" M-95.55126190185547,35.9130859375 C-95.55126190185547,35.9130859375 -95.55126190185547,1.7013859748840332 -95.55126190185547,1.7013859748840332"/></g></g><g transform="matrix(5.275599956512451,0,0,5.275599956512451,325.0899963378906,190.02000427246094)" opacity="1" style="display: none;"><g opacity="1" transform="matrix(1,0,0,1,0,0)"><path stroke-linecap="round" stroke-linejoin="round" fill-opacity="0" class="primary" stroke="rgb(0,0,0)" stroke-opacity="1" stroke-width="2.45" d=" M-18.060441970825195,-25.304649353027344 C-18.060441970825195,-25.304649353027344 11.58579158782959,3.2672648429870605 11.58579158782959,3.2672648429870605"/></g><g opacity="1" transform="matrix(1,0,0,1,0,0)"><path stroke-linecap="round" stroke-linejoin="round" fill-opacity="0" class="primary" stroke="rgb(0,0,0)" stroke-opacity="1" stroke-width="2.45" d=" M-42.303951263427734,35.904415130615234 C-42.303951263427734,35.904415130615234 6.096161365509033,35.904136657714844 6.096161365509033,35.904136657714844 C6.096161365509033,35.904136657714844 6.090896129608154,-1.6718792915344238 6.090896129608154,-1.6718792915344238 C6.090896129608154,-1.6718792915344238 6.090896129608154,-1.7963260412216187 6.090896129608154,-1.7963260412216187"/></g></g><g transform="matrix(1,0,0,1,215.5,273.5)" opacity="1" style="display: none;"><g opacity="1" transform="matrix(1,0,0,1,0,0)"><path stroke-linecap="round" stroke-linejoin="round" fill-opacity="0" class="secondary" stroke="rgb(0,0,0)" stroke-opacity="1" stroke-width="12" d=" M-37.035884857177734,69.5 C-37.035884857177734,69.5 -37.035884857177734,2.5 -37.035884857177734,2.5 M-18.042007446289062,69.5 C-18.042007446289062,69.5 -18.042007446289062,2.5 -18.042007446289062,2.5 M3.3097424507141113,69.5 C3.3097424507141113,69.5 3.3097424507141113,2.5 3.3097424507141113,2.5 M25.63272476196289,69.5 C25.63272476196289,69.5 25.63272476196289,2.5 25.63272476196289,2.5 M46.98502731323242,69.5 C46.98502731323242,69.5 46.98502731323242,2.5 46.98502731323242,2.5 M68.45780181884766,69.5 C68.45780181884766,69.5 68.45780181884766,2.5 68.45780181884766,2.5 M87.38902282714844,69.5 C87.38902282714844,69.5 -58.41349792480469,69.5 -58.41349792480469,69.5 M51.460906982421875,2.5 C51.460906982421875,2.5 51.460906982421875,-68.80845642089844 51.460906982421875,-68.80845642089844 C51.460906982421875,-68.80845642089844 -26.73015785217285,-68.80845642089844 -26.73015785217285,-68.80845642089844 C-26.73015785217285,-68.80845642089844 -26.73015785217285,2.5 -26.73015785217285,2.5 M87.38902282714844,69.5 C87.38902282714844,69.5 87.38902282714844,2.5 87.38902282714844,2.5 C87.38902282714844,2.5 -58.41349792480469,2.5 -58.41349792480469,2.5 C-58.41349792480469,2.5 -58.41349792480469,69.5 -58.41349792480469,69.5"/></g></g><g transform="matrix(5.275599956512451,0,0,5.275599956512451,583.4199829101562,190.02000427246094)" opacity="1" style="display: block;"><g opacity="1" transform="matrix(1,0,0,1,0,0)"><path stroke-linecap="round" stroke-linejoin="round" fill-opacity="0" class="primary" stroke="rgb(0,0,0)" stroke-opacity="1" stroke-width="2.5" d=" M-97.59759521484375,35.88530731201172 C-97.59759521484375,35.88530731201172 -39.5020751953125,35.84600067138672 -39.5020751953125,35.84600067138672 C-39.5020751953125,35.84600067138672 -39.5020751953125,3.2130000591278076 -39.5020751953125,3.2130000591278076"/></g></g><g transform="matrix(5.275599956512451,0,0,5.275599956512451,583.4199829101562,190.02000427246094)" opacity="1" style="display: none;"><g opacity="1" transform="matrix(1,0,0,1,0,0)"><path stroke-linecap="round" stroke-linejoin="round" fill-opacity="0" class="primary" stroke="rgb(0,0,0)" stroke-opacity="1" stroke-width="2.5" d=" M-78.58154296875,-19.116619110107422 C-78.58154296875,-19.116619110107422 -71.79139709472656,-25.251670837402344 -71.79139709472656,-25.251670837402344 M-101.6385498046875,3.2386362552642822 C-101.6385498046875,3.2386362552642822 -88.42189025878906,-9.825310707092285 -88.42189025878906,-9.825310707092285"/></g></g><g transform="matrix(5.275599956512451,0,0,5.275599956512451,325.0899963378906,190.02000427246094)" opacity="1" style="display: none;"><g opacity="0" transform="matrix(1,0,0,1,0,0)"><path stroke-linecap="round" stroke-linejoin="round" fill-opacity="0" class="secondary" stroke="rgb(0,0,0)" stroke-opacity="1" stroke-width="2.45" d=" M-27.183000564575195,-14.454999923706055 C-27.183000564575195,-14.454999923706055 -27.183000564575195,-18.768999099731445 -27.183000564575195,-18.768999099731445 C-27.183000564575195,-18.768999099731445 -27.25200080871582,-18.768999099731445 -27.25200080871582,-18.768999099731445 C-27.25200080871582,-18.768999099731445 -27.25200080871582,-8.24899959564209 -27.25200080871582,-8.24899959564209"/></g><g opacity="1" transform="matrix(1,0,0,1,0,0)"><path stroke-linecap="round" stroke-linejoin="round" fill-opacity="0" class="secondary" stroke="rgb(0,0,0)" stroke-opacity="1" stroke-width="2.45" d="M0 0"/></g><g opacity="0" transform="matrix(1,0,0,1,0,0)"><path stroke-linecap="round" stroke-linejoin="round" fill-opacity="0" class="secondary" stroke="rgb(0,0,0)" stroke-opacity="1" stroke-width="2.45" d=" M-38.78300094604492,-6.558000087738037 C-38.78300094604492,-6.558000087738037 -38.80500030517578,-20.690000534057617 -38.80500030517578,-20.690000534057617 C-38.80500030517578,-20.690000534057617 -38.68600082397461,-20.634000778198242 -38.68600082397461,-20.634000778198242 C-38.68600082397461,-20.634000778198242 -38.65599822998047,-6.461999893188477 -38.65599822998047,-6.461999893188477"/></g></g><g transform="matrix(5.275599956512451,0,0,5.275599956512451,583.4199829101562,190.02000427246094)" opacity="1" style="display: block;"><g opacity="1" transform="matrix(1,0,0,1,0,0)"><path stroke-linecap="round" stroke-linejoin="round" fill-opacity="0" class="primary" stroke="rgb(0,0,0)" stroke-opacity="1" stroke-width="2.5" d=" M-40.433998107910156,-13.598999977111816 C-37.382999420166016,-5.74399995803833 -33.9109992980957,3.196000099182129 -33.9109992980957,3.196000099182129 C-33.91096115112305,3.196000099182129 -102.42221069335938,3.3383853435516357 -102.42221069335938,3.3383853435516357 M-94.27851104736328,-25.381000518798828 C-94.27851104736328,-25.381000518798828 -44.95577621459961,-25.24250030517578 -44.95577621459961,-25.24250030517578 C-44.95600128173828,-25.243000030517578 -42.82400131225586,-19.753999710083008 -40.433998107910156,-13.598999977111816"/></g></g><g transform="matrix(5.275599956512451,0,0,5.275599956512451,325.0899963378906,190.02000427246094)" opacity="1" style="display: block;"><g opacity="1" transform="matrix(1,0,0,1,0,0)"><path stroke-linecap="round" stroke-linejoin="round" fill-opacity="0" class="secondary" stroke="rgb(0,0,0)" stroke-opacity="1" stroke-width="2.45" d=" M-26.463960647583008,-14.459041595458984 C-26.463960647583008,-14.459041595458984 -26.463960647583008,-18.8709716796875 -26.463960647583008,-18.8709716796875 C-26.463960647583008,-18.8709716796875 -26.076040267944336,-18.8709716796875 -26.076040267944336,-18.8709716796875 C-26.076040267944336,-18.8709716796875 -26.076040267944336,-8.24091625213623 -26.076040267944336,-8.24091625213623"/></g><g opacity="0" transform="matrix(1,0,0,1,0,0)"><path stroke-linecap="round" stroke-linejoin="round" fill-opacity="0" class="secondary" stroke="rgb(0,0,0)" stroke-opacity="1" stroke-width="2.45" d=" M-14.814000129699707,-14.5 C-14.814000129699707,-14.5 -14.814000129699707,-18.815000534057617 -14.814000129699707,-18.815000534057617 C-14.814000129699707,-18.815000534057617 -14.883000373840332,-18.815000534057617 -14.883000373840332,-18.815000534057617 C-14.883000373840332,-18.815000534057617 -14.883000373840332,-8.295000076293945 -14.883000373840332,-8.295000076293945"/></g><g opacity="1" transform="matrix(1,0,0,1,0,0)"><path stroke-linecap="round" stroke-linejoin="round" fill-opacity="0" class="secondary" stroke="rgb(0,0,0)" stroke-opacity="1" stroke-width="2.45" d=" M-26.17881202697754,-8.232999801635742 C-26.17881202697754,-8.232999801635742 -26.14440155029297,-18.870742797851562 -26.14440155029297,-18.870742797851562 C-26.14440155029297,-18.870742797851562 -13.926518440246582,-18.82207489013672 -13.926518440246582,-18.82207489013672 C-13.926518440246582,-18.82207489013672 -13.948927879333496,-8.145331382751465 -13.948927879333496,-8.145331382751465"/></g></g><g transform="matrix(5.275599956512451,0,0,5.275599956512451,325.0899963378906,190.02000427246094)" opacity="1" style="display: none;"><g opacity="1" transform="matrix(1,0,0,1,0,0)"><path stroke-linecap="round" stroke-linejoin="round" fill-opacity="0" class="secondary" stroke="rgb(0,0,0)" stroke-opacity="1" stroke-width="2.45" d=" M-9.926326751708984,-16.436782836914062 C-9.926326751708984,-16.436782836914062 -9.926326751708984,-22.228782653808594 -9.926326751708984,-22.228782653808594 C-9.926326751708984,-22.228782653808594 -0.9913264513015747,-22.228782653808594 -0.9913264513015747,-22.228782653808594 C-0.9913264513015747,-22.228782653808594 -0.9913264513015747,-8.105782508850098 -0.9913264513015747,-8.105782508850098"/></g></g><g transform="matrix(5.275599956512451,0,0,5.275599956512451,325.0899963378906,190.02000427246094)" opacity="1" style="display: block;"><g opacity="1" transform="matrix(1,0,0,1,0,0)"><path stroke-linecap="round" stroke-linejoin="round" fill-opacity="0" class="secondary" stroke="rgb(0,0,0)" stroke-opacity="1" stroke-width="2.45" d=" M-50.09767532348633,35.69663619995117 C-50.09767532348633,35.69663619995117 -50.09767532348633,9.715999603271484 -50.09767532348633,9.715999603271484 C-50.09767532348633,9.715999603271484 -49.38957977294922,9.715999603271484 -49.38957977294922,9.715999603271484 C-49.38957977294922,9.715999603271484 -49.38957977294922,35.69663619995117 -49.38957977294922,35.69663619995117"/></g><g opacity="1" transform="matrix(1,0,0,1,0,0)"><path stroke-linecap="round" stroke-linejoin="round" fill-opacity="0" class="primary" stroke="rgb(0,0,0)" stroke-opacity="1" stroke-width="2.45" d=" M-56.33268356323242,3.2569215297698975 C-56.33268356323242,3.2569215297698975 -45.53152084350586,-25.545175552368164 -45.53152084350586,-25.545175552368164 C-45.53152084350586,-25.545175552368164 -53.56111145019531,3.2569215297698975 -53.56111145019531,3.2569215297698975"/></g><g opacity="1" transform="matrix(1,0,0,1,0,0)"><path stroke-linecap="round" stroke-linejoin="round" fill-opacity="0" class="primary" stroke="rgb(0,0,0)" stroke-opacity="1" stroke-width="2.45" d=" M-50.84926986694336,3.5399999618530273 C-50.84926986694336,3.5399999618530273 -50.84926986694336,3.634999990463257 -50.84926986694336,3.634999990463257 C-50.84926986694336,3.634999990463257 -50.87710952758789,35.69623947143555 -50.87710952758789,35.69623947143555 C-50.87710952758789,35.69623947143555 -48.62498474121094,35.69623947143555 -48.62498474121094,35.69623947143555 C-48.62498474121094,35.69623947143555 -48.63358688354492,3.617877721786499 -48.63358688354492,3.617877721786499"/></g></g><g transform="matrix(5.275599956512451,0,0,5.275599956512451,325.0899963378906,190.02000427246094)" opacity="1" style="display: none;"><g opacity="1" transform="matrix(1,0,0,1,0,0)"><path stroke-linecap="round" stroke-linejoin="round" fill-opacity="0" class="primary" stroke="rgb(0,0,0)" stroke-opacity="1" stroke-width="2.45" d=" M-50.572120666503906,3.5399999618530273 C-50.572120666503906,3.5399999618530273 -50.572120666503906,3.634999990463257 -50.572120666503906,3.634999990463257 C-50.572120666503906,3.634999990463257 -50.57859802246094,35.68364334106445 -50.57859802246094,35.68364334106445"/></g></g><g transform="matrix(5.275599956512451,0,0,5.275599956512451,325.0899963378906,190.02000427246094)" opacity="1" style="display: none;"><g opacity="1" transform="matrix(1,0,0,1,0,0)"><path stroke-linecap="round" stroke-linejoin="round" fill-opacity="0" class="secondary" stroke="rgb(0,0,0)" stroke-opacity="1" stroke-width="2.45" d=" M-28.240861892700195,35.9169921875 C-28.240861892700195,35.9169921875 -28.240861892700195,9.715991973876953 -28.240861892700195,9.715991973876953 C-28.240861892700195,9.715991973876953 -12.387130737304688,9.715991973876953 -12.387130737304688,9.715991973876953 C-12.387130737304688,9.715991973876953 -12.387130737304688,35.9169921875 -12.387130737304688,35.9169921875"/></g></g><g transform="matrix(1,0,0,1,215.5,273.5)" opacity="1" style="display: none;"><g opacity="1" transform="matrix(1,0,0,1,0,0)"><path stroke-linecap="round" stroke-linejoin="round" fill-opacity="0" class="secondary" stroke="rgb(0,0,0)" stroke-opacity="1" stroke-width="12" d=" M-167.43800354003906,69.5 C-167.43800354003906,69.5 -167.43800354003906,2.5 -167.43800354003906,2.5 M-167.43800354003906,69.5 C-167.43800354003906,69.5 -167.43800354003906,2.5 -167.43800354003906,2.5 M-167.43800354003906,69.5 C-167.43800354003906,69.5 -167.43800354003906,2.5 -167.43800354003906,2.5 M-167.43800354003906,69.5 C-167.43800354003906,69.5 -167.43800354003906,2.5 -167.43800354003906,2.5 M-167.43800354003906,69.5 C-167.43800354003906,69.5 -167.43800354003906,2.5 -167.43800354003906,2.5 M-167.43800354003906,69.5 C-167.43800354003906,69.5 -167.43800354003906,2.5 -167.43800354003906,2.5 M-167.6820068359375,69.5 C-167.6820068359375,69.5 -167.43800354003906,69.5 -167.43800354003906,69.5 M-167.68800354003906,2.5 C-167.68800354003906,2.5 -167.68800354003906,-62.75 -167.68800354003906,-62.75 C-167.68800354003906,-62.75 -167.68499755859375,-62.75 -167.68499755859375,-62.75 C-167.68499755859375,-62.75 -167.68499755859375,2.5 -167.68499755859375,2.5 M-167.6820068359375,69.5 C-167.6820068359375,69.5 -167.6820068359375,2.5 -167.6820068359375,2.5 C-167.6820068359375,2.5 -167.43800354003906,2.5 -167.43800354003906,2.5 C-167.43800354003906,2.5 -167.43800354003906,69.5 -167.43800354003906,69.5"/></g></g><g transform="matrix(1,0,0,1,294.5,272.5)" opacity="1" style="display: none;"><g opacity="1" transform="matrix(1,0,0,1,0,0)"><path stroke-linecap="round" stroke-linejoin="round" fill-opacity="0" class="secondary" stroke="rgb(0,0,0)" stroke-opacity="1" stroke-width="12" d=" M-210.49472045898438,33.5 C-210.49472045898438,33.5 -210.49664306640625,33.5 -210.49664306640625,33.5 M-210.49472045898438,33.5 C-210.49472045898438,33.5 -210.49472045898438,0 -210.49472045898438,0 C-210.49472045898438,0 -210.49472045898438,-33.5 -210.49472045898438,-33.5 C-210.49472045898438,-33.5 -210.49664306640625,-33.5 -210.49664306640625,-33.5 C-210.49664306640625,-33.5 -210.49664306640625,33.5 -210.49664306640625,33.5"/></g></g><g transform="matrix(1,0,0,1,137.5,272.5)" opacity="1" style="display: none;"><g opacity="1" transform="matrix(1,0,0,1,0,0)"><path stroke-linecap="round" stroke-linejoin="round" fill-opacity="0" class="secondary" stroke="rgb(0,0,0)" stroke-opacity="1" stroke-width="12" d=" M-54.49862289428711,33.5 C-54.49862289428711,33.5 -54.500545501708984,33.5 -54.500545501708984,33.5 M-54.49862289428711,33.5 C-54.49862289428711,33.5 -54.49862289428711,-33.5 -54.49862289428711,-33.5 C-54.49862289428711,-33.5 -54.500545501708984,-33.5 -54.500545501708984,-33.5 C-54.500545501708984,-33.5 -54.500545501708984,33.5 -54.500545501708984,33.5"/></g></g><g transform="matrix(5.275599956512451,0,0,5.275599956512451,583.4199829101562,190.02000427246094)" opacity="1" style="display: none;"><g opacity="1" transform="matrix(1,0,0,1,0,0)"><path stroke-linecap="round" stroke-linejoin="round" fill-opacity="0" class="primary" stroke="rgb(0,0,0)" stroke-opacity="1" stroke-width="2.5" d=" M-94.60839080810547,35.91999816894531 C-94.60839080810547,35.91999816894531 -94.60839080810547,-1.8295336961746216 -94.60839080810547,-1.8295336961746216"/></g></g><g transform="matrix(5.275599956512451,0,0,5.275599956512451,325.0899963378906,190.02000427246094)" opacity="1" style="display: none;"><g opacity="1" transform="matrix(1,0,0,1,0,0)"><path stroke-linecap="round" stroke-linejoin="round" fill-opacity="0" class="primary" stroke="rgb(0,0,0)" stroke-opacity="1" stroke-width="2.45" d=" M-20.314064025878906,-25.294004440307617 C-20.314064025878906,-25.294004440307617 10.511445999145508,3.2839930057525635 10.511445999145508,3.2839930057525635"/></g><g opacity="1" transform="matrix(1,0,0,1,0,0)"><path stroke-linecap="round" stroke-linejoin="round" fill-opacity="0" class="primary" stroke="rgb(0,0,0)" stroke-opacity="1" stroke-width="2.45" d=" M-45.71058654785156,35.916996002197266 C-45.71058654785156,35.916996002197266 4.759554862976074,35.916996002197266 4.759554862976074,35.916996002197266 C4.759554862976074,35.916996002197266 4.750556468963623,-1.867918610572815 4.750556468963623,-1.867918610572815 C4.750556468963623,-1.867918610572815 4.750556468963623,-1.9929183721542358 4.750556468963623,-1.9929183721542358"/></g></g><g transform="matrix(5.275599956512451,0,0,5.275599956512451,583.4199829101562,190.02000427246094)" opacity="1" style="display: none;"><g opacity="1" transform="matrix(1,0,0,1,0,0)"><path stroke-linecap="round" stroke-linejoin="round" fill-opacity="0" class="primary" stroke="rgb(0,0,0)" stroke-opacity="1" stroke-width="2.5" d=" M-94.70528411865234,35.94099807739258 C-94.70528411865234,35.94099807739258 -94.74858856201172,35.84000015258789 -94.74858856201172,35.84000015258789 C-94.74858856201172,35.84000015258789 -94.74858856201172,-1.3420268297195435 -94.74858856201172,-1.3420268297195435"/></g></g><g transform="matrix(5.275599956512451,0,0,5.275599956512451,583.4199829101562,190.02000427246094)" opacity="1" style="display: none;"><g opacity="1" transform="matrix(1,0,0,1,0,0)"><path stroke-linecap="round" stroke-linejoin="round" fill-opacity="0" class="primary" stroke="rgb(0,0,0)" stroke-opacity="1" stroke-width="2.5" d=" M-69.21797180175781,-25.357999801635742 C-69.21797180175781,-25.357999801635742 -69.25607299804688,-25.305997848510742 -69.25607299804688,-25.305997848510742 C-69.25607299804688,-25.305997848510742 -100.3655014038086,3.128002643585205 -100.3655014038086,3.128002643585205 C-100.3655014038086,3.128002643585205 -100.368408203125,3.129011869430542 -100.368408203125,3.129011869430542"/></g></g><g transform="matrix(5.275599956512451,0,0,5.275599956512451,583.4199829101562,190.02000427246094)" opacity="1" style="display: none;"><g opacity="1" transform="matrix(1,0,0,1,0,0)"><path stroke-linecap="round" stroke-linejoin="round" fill-opacity="0" class="primary" stroke="rgb(0,0,0)" stroke-opacity="1" stroke-width="2.5" d=" M-100.72138214111328,3.2260053157806396 C-100.72138214111328,3.2260053157806396 -69.35098266601562,-25.3280029296875 -69.35098266601562,-25.3280029296875"/></g></g><g transform="matrix(5.275599956512451,0,0,5.275599956512451,325.0899963378906,190.02000427246094)" opacity="1" style="display: none;"><g opacity="1" transform="matrix(1,0,0,1,0,0)"><path stroke-linecap="round" stroke-linejoin="round" fill-opacity="0" class="primary" stroke="rgb(0,0,0)" stroke-opacity="1" stroke-width="2.45" d=" M-50.57859802246094,35.68364334106445 C-50.57859802246094,35.68364334106445 -50.279117584228516,35.68364334106445 -50.279117584228516,35.68364334106445 C-50.279117584228516,35.68364334106445 -50.27895736694336,3.6014459133148193 -50.27895736694336,3.6014459133148193"/></g></g><g transform="matrix(5.275599956512451,0,0,5.275599956512451,325.0899963378906,190.02000427246094)" opacity="1" style="display: none;"><g opacity="1" transform="matrix(1,0,0,1,0,0)"><path stroke-linecap="round" stroke-linejoin="round" fill-opacity="0" class="primary" stroke="rgb(0,0,0)" stroke-opacity="1" stroke-width="2.45" d=" M-56.11140441894531,3.255333185195923 C-56.11140441894531,3.255333185195923 -45.968387603759766,-25.55990982055664 -45.968387603759766,-25.55990982055664 C-45.968387603759766,-25.55990982055664 -55.7425422668457,3.255333185195923 -55.7425422668457,3.255333185195923"/></g></g><g transform="matrix(5.275599956512451,0,0,5.275599956512451,325.0899963378906,190.02000427246094)" opacity="1" style="display: none;"><g opacity="1" transform="matrix(1,0,0,1,0,0)"><path stroke-linecap="round" stroke-linejoin="round" fill-opacity="0" class="secondary" stroke="rgb(0,0,0)" stroke-opacity="1" stroke-width="2.45" d=" M-9.925999641418457,-16.437000274658203 C-9.925999641418457,-16.437000274658203 -9.925999641418457,-22.229000091552734 -9.925999641418457,-22.229000091552734 C-9.925999641418457,-22.229000091552734 -0.9909999966621399,-22.229000091552734 -0.9909999966621399,-22.229000091552734 C-0.9909999966621399,-22.229000091552734 -0.9909999966621399,-8.105999946594238 -0.9909999966621399,-8.105999946594238 C-0.9909999966621399,-8.105999946594238 -1.055999994277954,-8.166999816894531 -1.055999994277954,-8.166999816894531"/></g><g opacity="1" transform="matrix(1,0,0,1,0,0)"><path stroke-linecap="round" stroke-linejoin="round" fill-opacity="0" class="secondary" stroke="rgb(0,0,0)" stroke-opacity="1" stroke-width="2.45" d=" M-28.242000579833984,35.91699981689453 C-28.242000579833984,35.91699981689453 -28.242000579833984,9.715999603271484 -28.242000579833984,9.715999603271484 C-28.242000579833984,9.715999603271484 -12.387999534606934,9.715999603271484 -12.387999534606934,9.715999603271484 C-12.387999534606934,9.715999603271484 -12.387999534606934,35.91699981689453 -12.387999534606934,35.91699981689453"/></g><g opacity="1" transform="matrix(1,0,0,1,0,0)"><path stroke-linecap="round" stroke-linejoin="round" fill-opacity="0" class="secondary" stroke="rgb(0,0,0)" stroke-opacity="0" stroke-width="2.45" d=" M-51.58100128173828,3.2839999198913574 C-51.58100128173828,3.2839999198913574 -20.315000534057617,-25.29400062561035 -20.315000534057617,-25.29400062561035 M-20.315000534057617,-25.29400062561035 C-20.315000534057617,-25.29400062561035 10.51099967956543,3.2839999198913574 10.51099967956543,3.2839999198913574 M-45.71200180053711,-1.2940000295639038 C-45.71200180053711,-1.2940000295639038 -45.71200180053711,-1.184000015258789 -45.71200180053711,-1.184000015258789 C-45.71200180053711,-1.184000015258789 -45.71200180053711,35.91699981689453 -45.71200180053711,35.91699981689453 C-45.71200180053711,35.91699981689453 4.758999824523926,35.91699981689453 4.758999824523926,35.91699981689453 C4.758999824523926,35.91699981689453 4.75,-1.9930000305175781 4.75,-1.9930000305175781"/><path stroke-linecap="round" stroke-linejoin="round" fill-opacity="0" class="primary" stroke="rgb(0,0,0)" stroke-opacity="1" stroke-width="2.45" d=" M-51.58100128173828,3.2839999198913574 C-51.58100128173828,3.2839999198913574 -20.315000534057617,-25.29400062561035 -20.315000534057617,-25.29400062561035 M-20.315000534057617,-25.29400062561035 C-20.315000534057617,-25.29400062561035 10.51099967956543,3.2839999198913574 10.51099967956543,3.2839999198913574 M-45.71200180053711,-1.2940000295639038 C-45.71200180053711,-1.2940000295639038 -45.71200180053711,-1.184000015258789 -45.71200180053711,-1.184000015258789 C-45.71200180053711,-1.184000015258789 -45.71200180053711,35.91699981689453 -45.71200180053711,35.91699981689453 C-45.71200180053711,35.91699981689453 4.758999824523926,35.91699981689453 4.758999824523926,35.91699981689453 C4.758999824523926,35.91699981689453 4.75,-1.9930000305175781 4.75,-1.9930000305175781"/></g></g></g></g></g></svg>