<svg xmlns="http://www.w3.org/2000/svg" xmlns:xlink="http://www.w3.org/1999/xlink" viewBox="0 0 430 430" width="430" height="430" preserveAspectRatio="xMidYMid meet" style="width: 100%; height: 100%; transform: translate3d(0px, 0px, 0px); content-visibility: visible;"><defs><clipPath id="__lottie_element_6062"><rect width="430" height="430" x="0" y="0"/></clipPath><clipPath id="__lottie_element_6064"><path d="M0,0 L430,0 L430,430 L0,430z"/></clipPath></defs><g clip-path="url(#__lottie_element_6062)"><g clip-path="url(#__lottie_element_6064)" transform="matrix(1,0,0,1,0,0)" opacity="1" style="display: block;"><g transform="matrix(1,0,0,1,215,215)" opacity="1" style="display: block;"><g opacity="1" transform="matrix(1,0,0,1,0,0)"><path stroke-linecap="butt" stroke-linejoin="miter" fill-opacity="0" stroke-miterlimit="4" class="primary" stroke="rgb(0,0,0)" stroke-opacity="1" stroke-width="12" d=" M-100,-160 C-133.13699340820312,-160 -160,-133.13699340820312 -160,-100 C-160,-100 -160,100 -160,100 C-160,133.13699340820312 -133.13699340820312,160 -100,160 C-100,160 100,160 100,160 C133.13699340820312,160 160,133.13699340820312 160,100 C160,100 160,-100 160,-100 C160,-133.13699340820312 133.13699340820312,-160 100,-160 C100,-160 -100,-160 -100,-160z"/></g></g><g transform="matrix(1,0,0,1,215,215)" opacity="1" style="display: block;"><g opacity="1" transform="matrix(1,0,0,1,0,0)"><path class="secondary" fill="rgb(0,0,0)" fill-opacity="0" d=" M0,-85 C46.9114990234375,-85 85,-46.9114990234375 85,0 C85,46.9114990234375 46.9114990234375,85 0,85 C-46.9114990234375,85 -85,46.9114990234375 -85,0 C-85,-46.9114990234375 -46.9114990234375,-85 0,-85z"/><path stroke-linecap="butt" stroke-linejoin="miter" fill-opacity="0" stroke-miterlimit="4" class="secondary" stroke="rgb(0,0,0)" stroke-opacity="1" stroke-width="12" d=" M0,-85 C46.9114990234375,-85 85,-46.9114990234375 85,0 C85,46.9114990234375 46.9114990234375,85 0,85 C-46.9114990234375,85 -85,46.9114990234375 -85,0 C-85,-46.9114990234375 -46.9114990234375,-85 0,-85z"/></g></g><g transform="matrix(1,0,0,1,215,215.5)" opacity="1" style="display: block;"><g opacity="1" transform="matrix(1,0,0,1,0,0)"><path fill="rgb(121,121,121)" fill-opacity="1" d=" M99.93800354003906,-100.5 C99.93800354003906,-100.5 99.875,-100.5 99.875,-100.5"/><path stroke-linecap="round" stroke-linejoin="round" fill-opacity="0" class="primary" stroke="rgb(0,0,0)" stroke-opacity="1" stroke-width="20" d=" M99.93800354003906,-100.5 C99.93800354003906,-100.5 99.875,-100.5 99.875,-100.5"/></g></g></g></g></svg>