<svg xmlns="http://www.w3.org/2000/svg" xmlns:xlink="http://www.w3.org/1999/xlink" viewBox="0 0 500 500" width="500" height="500" preserveAspectRatio="xMidYMid meet" style="width: 100%; height: 100%; transform: translate3d(0px, 0px, 0px); content-visibility: visible;"><defs><clipPath id="__lottie_element_7498"><rect width="500" height="500" x="0" y="0"/></clipPath><clipPath id="__lottie_element_7500"><path d="M0,0 L500,0 L500,500 L0,500z"/></clipPath><g id="__lottie_element_7520"><g clip-path="url(#__lottie_element_7521)" transform="matrix(1,0,0,1,0,0)" opacity="1" style="display: none;"><g class="primary design" transform="matrix(1,0,0,1,250.0050048828125,286.46099853515625)" opacity="1" style="display: block;"><g opacity="1" transform="matrix(1,0,0,1,0,0)"><path stroke-linecap="round" stroke-linejoin="round" fill-opacity="0" stroke="rgb(255,255,255)" stroke-opacity="1" stroke-width="60" d=" M0,-52.08399963378906 C0,-52.08399963378906 0,52.08399963378906 0,52.08399963378906"/></g></g><g class="primary design" transform="matrix(1,0,0,1,250.00399780273438,166.6699981689453)" opacity="1" style="display: block;"><g opacity="1" transform="matrix(1,0,0,1,0,0)"><path class="primary" fill="rgb(18,19,49)" fill-opacity="1" d=" M0,0 C0,0 0,0 0,0"/><path stroke-linecap="round" stroke-linejoin="round" fill-opacity="0" stroke="rgb(255,255,255)" stroke-opacity="1" stroke-width="76" d=" M0,0 C0,0 0,0 0,0"/></g></g></g></g><clipPath id="__lottie_element_7521"><path d="M0,0 L500,0 L500,500 L0,500z"/></clipPath><filter id="__lottie_element_7531" filterUnits="objectBoundingBox" x="0%" y="0%" width="100%" height="100%"><feComponentTransfer in="SourceGraphic"><feFuncA type="table" tableValues="1.0 0.0"/></feComponentTransfer></filter><mask id="__lottie_element_7520_2" mask-type="alpha" maskUnits="userSpaceOnUse"><g filter="url(#__lottie_element_7531)"><rect width="500" height="500" x="0" y="0" fill="#ffffff" opacity="0"/><use xmlns:ns1="http://www.w3.org/1999/xlink" ns1:href="#__lottie_element_7520"/></g></mask></defs><g clip-path="url(#__lottie_element_7498)"><g clip-path="url(#__lottie_element_7500)" transform="matrix(1,0,0,1,0,0)" opacity="1" style="display: block;"><g mask="url(#__lottie_element_7520_2)" style="display: none;"><g class="primary design" transform="matrix(-1,0,0,-1,250.00399780273438,250.0030059814453)" opacity="1"><g opacity="1" transform="matrix(1,0,0,1,0,0)"><path stroke-linecap="round" stroke-linejoin="round" fill-opacity="0" class="primary" stroke="rgb(18,19,49)" stroke-opacity="1" stroke-width="31.3" d=" M192.65199279785156,-4.656000137329102 C195.2239990234375,101.74299621582031 111.05500030517578,190.0800018310547 4.656000137329102,192.65199279785156 C-101.74299621582031,195.2239990234375 -190.0800018310547,111.05500030517578 -192.65199279785156,4.656000137329102 C-195.2239990234375,-101.74299621582031 -111.05500030517578,-190.0800018310547 -4.656000137329102,-192.65199279785156 C101.74299621582031,-195.2239990234375 190.0800018310547,-111.05500030517578 192.65199279785156,-4.656000137329102z"/></g></g></g><g class="primary design" transform="matrix(1,0,0,1,250.0050048828125,286.46099853515625)" opacity="1" style="display: none;"><g opacity="1" transform="matrix(1,0,0,1,0,0)"><path stroke-linecap="round" stroke-linejoin="round" fill-opacity="0" class="primary" stroke="rgb(18,19,49)" stroke-opacity="1" stroke-width="31.3" d=" M0,-52.08399963378906 C0,-52.08399963378906 0,52.08399963378906 0,52.08399963378906"/></g></g><g class="primary design" transform="matrix(1,0,0,1,250.00399780273438,166.6699981689453)" opacity="1" style="display: none;"><g opacity="1" transform="matrix(1,0,0,1,0,0)"><path class="primary" fill="rgb(18,19,49)" fill-opacity="1" d=" M0,0 C0,0 0,0 0,0"/><path stroke-linecap="round" stroke-linejoin="round" fill-opacity="0" class="primary" stroke="rgb(18,19,49)" stroke-opacity="1" stroke-width="41.73" d=" M0,0 C0,0 0,0 0,0"/></g></g><g class="primary design" transform="matrix(1,0,0,1,0,0)" opacity="1" style="display: block;"><g opacity="1" transform="matrix(1,0,0,1,250.0050048828125,286.46099853515625)"><path class="primary" fill="rgb(18,19,49)" fill-opacity="1" d=" M0,-67.73400115966797 C-8.644000053405762,-67.73400115966797 -15.649999618530273,-60.72700119018555 -15.649999618530273,-52.08399963378906 C-15.649999618530273,-52.08399963378906 -15.649999618530273,52.08399963378906 -15.649999618530273,52.08399963378906 C-15.649999618530273,60.72700119018555 -8.644000053405762,67.73400115966797 0,67.73400115966797 C8.644000053405762,67.73400115966797 15.649999618530273,60.72700119018555 15.649999618530273,52.08399963378906 C15.649999618530273,52.08399963378906 15.649999618530273,-52.08399963378906 15.649999618530273,-52.08399963378906 C15.649999618530273,-60.72700119018555 8.644000053405762,-67.73400115966797 0,-67.73400115966797z"/></g><g opacity="1" transform="matrix(1,0,0,1,250.0050048828125,166.66900634765625)"><path class="primary" fill="rgb(18,19,49)" fill-opacity="1" d=" M20.454999923706055,-4.078000068664551 C20.325000762939453,-4.73799991607666 20.155000686645508,-5.4070000648498535 19.954999923706055,-6.057000160217285 C19.7549991607666,-6.706999778747559 19.525999069213867,-7.3470001220703125 19.264999389648438,-7.9770002365112305 C19.0049991607666,-8.607000350952148 18.71500015258789,-9.227999687194824 18.395000457763672,-9.82800006866455 C18.076000213623047,-10.428000450134277 17.725000381469727,-11.017999649047852 17.344999313354492,-11.57800006866455 C16.975000381469727,-12.14799976348877 16.565000534057617,-12.696999549865723 16.135000228881836,-13.22700023651123 C15.696000099182129,-13.756999969482422 15.234999656677246,-14.267000198364258 14.755000114440918,-14.746999740600586 C14.276000022888184,-15.22700023651123 13.755000114440918,-15.696999549865723 13.225000381469727,-16.12700080871582 C12.704999923706055,-16.55699920654297 12.145000457763672,-16.968000411987305 11.585000038146973,-17.347999572753906 C11.015000343322754,-17.718000411987305 10.425000190734863,-18.07699966430664 9.824999809265137,-18.39699935913086 C9.223999977111816,-18.707000732421875 8.604999542236328,-19.006999969482422 7.974999904632568,-19.267000198364258 C7.355000019073486,-19.527000427246094 6.704999923706055,-19.756999969482422 6.054999828338623,-19.957000732421875 C5.406000137329102,-20.14699935913086 4.735000133514404,-20.316999435424805 4.074999809265137,-20.457000732421875 C3.4049999713897705,-20.586999893188477 2.7249999046325684,-20.687999725341797 2.055000066757202,-20.757999420166016 C0.6850000023841858,-20.898000717163086 -0.6959999799728394,-20.898000717163086 -2.055000066757202,-20.757999420166016 C-2.7249999046325684,-20.687999725341797 -3.4149999618530273,-20.586999893188477 -4.074999809265137,-20.457000732421875 C-4.744999885559082,-20.316999435424805 -5.40500020980835,-20.14699935913086 -6.065000057220459,-19.957000732421875 C-6.704999923706055,-19.756999969482422 -7.355000019073486,-19.527000427246094 -7.985000133514404,-19.267000198364258 C-8.604999542236328,-19.006999969482422 -9.234999656677246,-18.707000732421875 -9.824999809265137,-18.39699935913086 C-10.425000190734863,-18.07699966430664 -11.015000343322754,-17.718000411987305 -11.585000038146973,-17.347999572753906 C-12.154999732971191,-16.968000411987305 -12.704999923706055,-16.55699920654297 -13.234999656677246,-16.12700080871582 C-13.763999938964844,-15.696999549865723 -14.276000022888184,-15.22700023651123 -14.755000114440918,-14.746999740600586 C-15.234999656677246,-14.267000198364258 -15.696000099182129,-13.756999969482422 -16.135000228881836,-13.22700023651123 C-16.56599998474121,-12.696999549865723 -16.975000381469727,-12.14799976348877 -17.344999313354492,-11.57800006866455 C-17.725000381469727,-11.017999649047852 -18.076000213623047,-10.428000450134277 -18.395999908447266,-9.82800006866455 C-18.71500015258789,-9.227999687194824 -19.0049991607666,-8.607000350952148 -19.264999389648438,-7.9770002365112305 C-19.525999069213867,-7.3470001220703125 -19.7549991607666,-6.706999778747559 -19.954999923706055,-6.057000160217285 C-20.155000686645508,-5.4070000648498535 -20.325000762939453,-4.73799991607666 -20.454999923706055,-4.078000068664551 C-20.594999313354492,-3.4079999923706055 -20.695999145507812,-2.7279999256134033 -20.764999389648438,-2.0480000972747803 C-20.834999084472656,-1.3680000305175781 -20.864999771118164,-0.6769999861717224 -20.864999771118164,0.003000000026077032 C-20.864999771118164,0.6830000281333923 -20.834999084472656,1.371999979019165 -20.764999389648438,2.052000045776367 C-20.695999145507812,2.7320001125335693 -20.594999313354492,3.4130001068115234 -20.454999923706055,4.083000183105469 C-20.325000762939453,4.743000030517578 -20.155000686645508,5.413000106811523 -19.954999923706055,6.063000202178955 C-19.7549991607666,6.7129998207092285 -19.525999069213867,7.353000164031982 -19.264999389648438,7.982999801635742 C-19.0049991607666,8.61299991607666 -18.71500015258789,9.232999801635742 -18.395999908447266,9.833000183105469 C-18.076000213623047,10.432999610900879 -17.725000381469727,11.02299976348877 -17.344999313354492,11.583000183105469 C-16.975000381469727,12.152999877929688 -16.56599998474121,12.70300006866455 -16.135000228881836,13.232999801635742 C-15.696000099182129,13.762999534606934 -15.234999656677246,14.27299976348877 -14.755000114440918,14.753000259399414 C-14.276000022888184,15.243000030517578 -13.763999938964844,15.70199966430664 -13.234999656677246,16.131999969482422 C-12.704999923706055,16.562000274658203 -12.154999732971191,16.972999572753906 -11.585000038146973,17.35300064086914 C-11.015000343322754,17.722999572753906 -10.425000190734863,18.08300018310547 -9.824999809265137,18.39299964904785 C-9.234999656677246,18.71299934387207 -8.604999542236328,19.01300048828125 -7.985000133514404,19.273000717163086 C-7.355000019073486,19.533000946044922 -6.704999923706055,19.761999130249023 -6.065000057220459,19.95199966430664 C-5.40500020980835,20.152000427246094 -4.744999885559082,20.322999954223633 -4.074999809265137,20.46299934387207 C-3.4149999618530273,20.593000411987305 -2.7249999046325684,20.691999435424805 -2.055000066757202,20.761999130249023 C-1.375,20.832000732421875 -0.6859999895095825,20.86199951171875 -0.004999999888241291,20.86199951171875 C0.675000011920929,20.86199951171875 1.3660000562667847,20.832000732421875 2.055000066757202,20.761999130249023 C2.7249999046325684,20.691999435424805 3.4049999713897705,20.593000411987305 4.074999809265137,20.46299934387207 C4.735000133514404,20.322999954223633 5.406000137329102,20.152000427246094 6.054999828338623,19.95199966430664 C6.704999923706055,19.761999130249023 7.355000019073486,19.533000946044922 7.974999904632568,19.273000717163086 C8.604999542236328,19.01300048828125 9.223999977111816,18.71299934387207 9.824999809265137,18.39299964904785 C10.425000190734863,18.08300018310547 11.015000343322754,17.722999572753906 11.585000038146973,17.35300064086914 C12.145000457763672,16.972999572753906 12.704999923706055,16.562000274658203 13.225000381469727,16.131999969482422 C13.755000114440918,15.70199966430664 14.276000022888184,15.243000030517578 14.755000114440918,14.753000259399414 C15.234999656677246,14.27299976348877 15.696000099182129,13.762999534606934 16.135000228881836,13.232999801635742 C16.565000534057617,12.70300006866455 16.975000381469727,12.152999877929688 17.344999313354492,11.583000183105469 C17.725000381469727,11.02299976348877 18.076000213623047,10.432999610900879 18.395000457763672,9.833000183105469 C18.71500015258789,9.232999801635742 19.0049991607666,8.61299991607666 19.264999389648438,7.982999801635742 C19.525999069213867,7.353000164031982 19.7549991607666,6.7129998207092285 19.954999923706055,6.063000202178955 C20.155000686645508,5.413000106811523 20.325000762939453,4.743000030517578 20.454999923706055,4.083000183105469 C20.594999313354492,3.4130001068115234 20.695999145507812,2.7320001125335693 20.764999389648438,2.052000045776367 C20.834999084472656,1.371999979019165 20.864999771118164,0.6830000281333923 20.864999771118164,0.003000000026077032 C20.864999771118164,-0.6769999861717224 20.834999084472656,-1.3680000305175781 20.764999389648438,-2.0480000972747803 C20.695999145507812,-2.7279999256134033 20.594999313354492,-3.4079999923706055 20.454999923706055,-4.078000068664551z"/></g><g opacity="1" transform="matrix(1,0,0,1,250.0030059814453,250.0019989013672)"><path class="primary" fill="rgb(18,19,49)" fill-opacity="1" d=" M208.2969970703125,-5.033999919891357 C206.95199584960938,-60.672000885009766 184.02200317382812,-112.45600128173828 143.72900390625,-150.84800720214844 C103.43599700927734,-189.23899841308594 50.61399841308594,-209.63999938964844 -5.033999919891357,-208.2969970703125 C-119.88999938964844,-205.52099609375 -211.07200622558594,-109.81999969482422 -208.2969970703125,5.034999847412109 C-205.56199645996094,118.18699645996094 -112.64700317382812,208.35899353027344 -0.07100000232458115,208.35899353027344 C1.6230000257492065,208.35899353027344 3.3320000171661377,208.33900451660156 5.034999847412109,208.29800415039062 C119.88999938964844,205.52200317382812 211.07200622558594,109.82099914550781 208.2969970703125,-5.033999919891357z M4.2789998054504395,177.0070037841797 C2.825000047683716,177.04200744628906 1.3849999904632568,177.0590057373047 -0.05999999865889549,177.0590057373047 C-95.71700286865234,177.0590057373047 -174.6820068359375,100.427001953125 -177.00599670410156,4.2789998054504395 C-179.36500549316406,-93.322998046875 -101.87999725341797,-174.64700317382812 -4.2779998779296875,-177.00599670410156 C-2.8239998817443848,-177.04100036621094 -1.3849999904632568,-177.0590057373047 0.05999999865889549,-177.0590057373047 C95.71700286865234,-177.0590057373047 174.68299865722656,-100.42500305175781 177.00599670410156,-4.2779998779296875 C179.36399841308594,93.3239974975586 101.87999725341797,174.6490020751953 4.2789998054504395,177.0070037841797z"/></g></g><g class="primary design" transform="matrix(1,0,0,1,0,0)" opacity="1" style="display: none;"><g opacity="1" transform="matrix(1,0,0,1,250.0050048828125,286.46099853515625)"><path class="primary" fill="rgb(18,19,49)" fill-opacity="1" d=" M0,-67.73400115966797 C-8.644000053405762,-67.73400115966797 -15.649999618530273,-60.72700119018555 -15.649999618530273,-52.08399963378906 C-15.649999618530273,-52.08399963378906 -15.649999618530273,52.08399963378906 -15.649999618530273,52.08399963378906 C-15.649999618530273,60.72700119018555 -8.644000053405762,67.73400115966797 0,67.73400115966797 C8.644000053405762,67.73400115966797 15.649999618530273,60.72700119018555 15.649999618530273,52.08399963378906 C15.649999618530273,52.08399963378906 15.649999618530273,-52.08399963378906 15.649999618530273,-52.08399963378906 C15.649999618530273,-60.72700119018555 8.644000053405762,-67.73400115966797 0,-67.73400115966797z"/></g><g opacity="1" transform="matrix(1,0,0,1,250.0050048828125,166.66900634765625)"><path class="primary" fill="rgb(18,19,49)" fill-opacity="1" d=" M20.454999923706055,-4.078000068664551 C20.325000762939453,-4.73799991607666 20.155000686645508,-5.4070000648498535 19.954999923706055,-6.057000160217285 C19.7549991607666,-6.706999778747559 19.525999069213867,-7.3470001220703125 19.264999389648438,-7.9770002365112305 C19.0049991607666,-8.607000350952148 18.71500015258789,-9.227999687194824 18.395000457763672,-9.82800006866455 C18.076000213623047,-10.428000450134277 17.725000381469727,-11.017999649047852 17.344999313354492,-11.57800006866455 C16.975000381469727,-12.14799976348877 16.565000534057617,-12.696999549865723 16.135000228881836,-13.22700023651123 C15.696000099182129,-13.756999969482422 15.234999656677246,-14.267000198364258 14.755000114440918,-14.746999740600586 C14.276000022888184,-15.22700023651123 13.755000114440918,-15.696999549865723 13.225000381469727,-16.12700080871582 C12.704999923706055,-16.55699920654297 12.145000457763672,-16.968000411987305 11.585000038146973,-17.347999572753906 C11.015000343322754,-17.718000411987305 10.425000190734863,-18.07699966430664 9.824999809265137,-18.39699935913086 C9.223999977111816,-18.707000732421875 8.604999542236328,-19.006999969482422 7.974999904632568,-19.267000198364258 C7.355000019073486,-19.527000427246094 6.704999923706055,-19.756999969482422 6.054999828338623,-19.957000732421875 C5.406000137329102,-20.14699935913086 4.735000133514404,-20.316999435424805 4.074999809265137,-20.457000732421875 C3.4049999713897705,-20.586999893188477 2.7249999046325684,-20.687999725341797 2.055000066757202,-20.757999420166016 C0.6850000023841858,-20.898000717163086 -0.6959999799728394,-20.898000717163086 -2.055000066757202,-20.757999420166016 C-2.7249999046325684,-20.687999725341797 -3.4149999618530273,-20.586999893188477 -4.074999809265137,-20.457000732421875 C-4.744999885559082,-20.316999435424805 -5.40500020980835,-20.14699935913086 -6.065000057220459,-19.957000732421875 C-6.704999923706055,-19.756999969482422 -7.355000019073486,-19.527000427246094 -7.985000133514404,-19.267000198364258 C-8.604999542236328,-19.006999969482422 -9.234999656677246,-18.707000732421875 -9.824999809265137,-18.39699935913086 C-10.425000190734863,-18.07699966430664 -11.015000343322754,-17.718000411987305 -11.585000038146973,-17.347999572753906 C-12.154999732971191,-16.968000411987305 -12.704999923706055,-16.55699920654297 -13.234999656677246,-16.12700080871582 C-13.763999938964844,-15.696999549865723 -14.276000022888184,-15.22700023651123 -14.755000114440918,-14.746999740600586 C-15.234999656677246,-14.267000198364258 -15.696000099182129,-13.756999969482422 -16.135000228881836,-13.22700023651123 C-16.56599998474121,-12.696999549865723 -16.975000381469727,-12.14799976348877 -17.344999313354492,-11.57800006866455 C-17.725000381469727,-11.017999649047852 -18.076000213623047,-10.428000450134277 -18.395999908447266,-9.82800006866455 C-18.71500015258789,-9.227999687194824 -19.0049991607666,-8.607000350952148 -19.264999389648438,-7.9770002365112305 C-19.525999069213867,-7.3470001220703125 -19.7549991607666,-6.706999778747559 -19.954999923706055,-6.057000160217285 C-20.155000686645508,-5.4070000648498535 -20.325000762939453,-4.73799991607666 -20.454999923706055,-4.078000068664551 C-20.594999313354492,-3.4079999923706055 -20.695999145507812,-2.7279999256134033 -20.764999389648438,-2.0480000972747803 C-20.834999084472656,-1.3680000305175781 -20.864999771118164,-0.6769999861717224 -20.864999771118164,0.003000000026077032 C-20.864999771118164,0.6830000281333923 -20.834999084472656,1.371999979019165 -20.764999389648438,2.052000045776367 C-20.695999145507812,2.7320001125335693 -20.594999313354492,3.4130001068115234 -20.454999923706055,4.083000183105469 C-20.325000762939453,4.743000030517578 -20.155000686645508,5.413000106811523 -19.954999923706055,6.063000202178955 C-19.7549991607666,6.7129998207092285 -19.525999069213867,7.353000164031982 -19.264999389648438,7.982999801635742 C-19.0049991607666,8.61299991607666 -18.71500015258789,9.232999801635742 -18.395999908447266,9.833000183105469 C-18.076000213623047,10.432999610900879 -17.725000381469727,11.02299976348877 -17.344999313354492,11.583000183105469 C-16.975000381469727,12.152999877929688 -16.56599998474121,12.70300006866455 -16.135000228881836,13.232999801635742 C-15.696000099182129,13.762999534606934 -15.234999656677246,14.27299976348877 -14.755000114440918,14.753000259399414 C-14.276000022888184,15.243000030517578 -13.763999938964844,15.70199966430664 -13.234999656677246,16.131999969482422 C-12.704999923706055,16.562000274658203 -12.154999732971191,16.972999572753906 -11.585000038146973,17.35300064086914 C-11.015000343322754,17.722999572753906 -10.425000190734863,18.08300018310547 -9.824999809265137,18.39299964904785 C-9.234999656677246,18.71299934387207 -8.604999542236328,19.01300048828125 -7.985000133514404,19.273000717163086 C-7.355000019073486,19.533000946044922 -6.704999923706055,19.761999130249023 -6.065000057220459,19.95199966430664 C-5.40500020980835,20.152000427246094 -4.744999885559082,20.322999954223633 -4.074999809265137,20.46299934387207 C-3.4149999618530273,20.593000411987305 -2.7249999046325684,20.691999435424805 -2.055000066757202,20.761999130249023 C-1.375,20.832000732421875 -0.6859999895095825,20.86199951171875 -0.004999999888241291,20.86199951171875 C0.675000011920929,20.86199951171875 1.3660000562667847,20.832000732421875 2.055000066757202,20.761999130249023 C2.7249999046325684,20.691999435424805 3.4049999713897705,20.593000411987305 4.074999809265137,20.46299934387207 C4.735000133514404,20.322999954223633 5.406000137329102,20.152000427246094 6.054999828338623,19.95199966430664 C6.704999923706055,19.761999130249023 7.355000019073486,19.533000946044922 7.974999904632568,19.273000717163086 C8.604999542236328,19.01300048828125 9.223999977111816,18.71299934387207 9.824999809265137,18.39299964904785 C10.425000190734863,18.08300018310547 11.015000343322754,17.722999572753906 11.585000038146973,17.35300064086914 C12.145000457763672,16.972999572753906 12.704999923706055,16.562000274658203 13.225000381469727,16.131999969482422 C13.755000114440918,15.70199966430664 14.276000022888184,15.243000030517578 14.755000114440918,14.753000259399414 C15.234999656677246,14.27299976348877 15.696000099182129,13.762999534606934 16.135000228881836,13.232999801635742 C16.565000534057617,12.70300006866455 16.975000381469727,12.152999877929688 17.344999313354492,11.583000183105469 C17.725000381469727,11.02299976348877 18.076000213623047,10.432999610900879 18.395000457763672,9.833000183105469 C18.71500015258789,9.232999801635742 19.0049991607666,8.61299991607666 19.264999389648438,7.982999801635742 C19.525999069213867,7.353000164031982 19.7549991607666,6.7129998207092285 19.954999923706055,6.063000202178955 C20.155000686645508,5.413000106811523 20.325000762939453,4.743000030517578 20.454999923706055,4.083000183105469 C20.594999313354492,3.4130001068115234 20.695999145507812,2.7320001125335693 20.764999389648438,2.052000045776367 C20.834999084472656,1.371999979019165 20.864999771118164,0.6830000281333923 20.864999771118164,0.003000000026077032 C20.864999771118164,-0.6769999861717224 20.834999084472656,-1.3680000305175781 20.764999389648438,-2.0480000972747803 C20.695999145507812,-2.7279999256134033 20.594999313354492,-3.4079999923706055 20.454999923706055,-4.078000068664551z"/></g><g opacity="1" transform="matrix(1,0,0,1,250.0030059814453,250.0019989013672)"><path class="primary" fill="rgb(18,19,49)" fill-opacity="1" d=" M208.2969970703125,-5.033999919891357 C206.95199584960938,-60.672000885009766 184.02200317382812,-112.45600128173828 143.72900390625,-150.84800720214844 C103.43599700927734,-189.23899841308594 50.61399841308594,-209.63999938964844 -5.033999919891357,-208.2969970703125 C-119.88999938964844,-205.52099609375 -211.07200622558594,-109.81999969482422 -208.2969970703125,5.034999847412109 C-205.56199645996094,118.18699645996094 -112.64700317382812,208.35899353027344 -0.07100000232458115,208.35899353027344 C1.6230000257492065,208.35899353027344 3.3320000171661377,208.33900451660156 5.034999847412109,208.29800415039062 C119.88999938964844,205.52200317382812 211.07200622558594,109.82099914550781 208.2969970703125,-5.033999919891357z M4.2789998054504395,177.0070037841797 C2.825000047683716,177.04200744628906 1.3849999904632568,177.0590057373047 -0.05999999865889549,177.0590057373047 C-95.71700286865234,177.0590057373047 -174.6820068359375,100.427001953125 -177.00599670410156,4.2789998054504395 C-179.36500549316406,-93.322998046875 -101.87999725341797,-174.64700317382812 -4.2779998779296875,-177.00599670410156 C-2.8239998817443848,-177.04100036621094 -1.3849999904632568,-177.0590057373047 0.05999999865889549,-177.0590057373047 C95.71700286865234,-177.0590057373047 174.68299865722656,-100.42500305175781 177.00599670410156,-4.2779998779296875 C179.36399841308594,93.3239974975586 101.87999725341797,174.6490020751953 4.2789998054504395,177.0070037841797z"/></g></g></g></g></svg>