<svg xmlns="http://www.w3.org/2000/svg" xmlns:xlink="http://www.w3.org/1999/xlink" viewBox="0 0 430 430" width="430" height="430" preserveAspectRatio="xMidYMid meet" style="width: 100%; height: 100%; transform: translate3d(0px, 0px, 0px); content-visibility: visible;"><defs><clipPath id="__lottie_element_7806"><rect width="430" height="430" x="0" y="0"/></clipPath><clipPath id="__lottie_element_7808"><path d="M0,0 L430,0 L430,430 L0,430z"/></clipPath></defs><g clip-path="url(#__lottie_element_7806)"><g clip-path="url(#__lottie_element_7808)" transform="matrix(1,0,0,1,0,0)" opacity="1" style="display: block;"><g transform="matrix(1,0,0,1,215,215.00001525878906)" opacity="1" style="display: block;"><g opacity="1" transform="matrix(1,0,0,1,0,0)"><path stroke-linecap="round" stroke-linejoin="round" fill-opacity="0" class="secondary" stroke="rgb(0,0,0)" stroke-opacity="1" stroke-width="12.6" d=" M0,80.05999755859375 C0,80.05999755859375 -106.74600219726562,80.05999755859375 -106.74600219726562,80.05999755859375 C-106.74600219726562,80.05999755859375 -106.74600219726562,12.446000099182129 -106.74600219726562,12.446000099182129 C-106.74600219726562,12.446000099182129 0,12.446000099182129 0,12.446000099182129 C0,12.446000099182129 0,80.05999755859375 0,80.05999755859375z"/></g><g opacity="1" transform="matrix(1,0,0,1,0,0)"><path stroke-linecap="round" stroke-linejoin="round" fill-opacity="0" class="secondary" stroke="rgb(0,0,0)" stroke-opacity="1" stroke-width="12.6" d=" M26.371000289916992,133.43299865722656 C26.371000289916992,133.43299865722656 26.371000289916992,13.343000411987305 26.371000289916992,13.343000411987305 C26.371000289916992,13.343000411987305 106.74600219726562,13.343000411987305 106.74600219726562,13.343000411987305 C106.74600219726562,13.343000411987305 106.74600219726562,133.43299865722656 106.74600219726562,133.43299865722656"/></g><g opacity="1" transform="matrix(1,0,0,1,0,0)"><path stroke-linecap="round" stroke-linejoin="round" fill-opacity="0" class="primary" stroke="rgb(0,0,0)" stroke-opacity="1" stroke-width="12.6" d=" M133.43299865722656,-24.01799964904785 C133.43299865722656,-24.01799964904785 133.43299865722656,133.43299865722656 133.43299865722656,133.43299865722656 C133.43299865722656,133.43299865722656 -133.43299865722656,133.43299865722656 -133.43299865722656,133.43299865722656 C-133.43299865722656,133.43299865722656 -133.43299865722656,-24.01799964904785 -133.43299865722656,-24.01799964904785"/></g><g opacity="1" transform="matrix(1,0,0,1,0,0)"><path stroke-linecap="round" stroke-linejoin="round" fill-opacity="0" class="primary" stroke="rgb(0,0,0)" stroke-opacity="1" stroke-width="12.6" d=" M-96.0719985961914,-56.04199981689453 C-96.0719985961914,-38.35599899291992 -110.40899658203125,-24.01799964904785 -128.09500122070312,-24.01799964904785 C-145.781005859375,-24.01799964904785 -160.11900329589844,-38.35599899291992 -160.11900329589844,-56.04199981689453 C-160.11900329589844,-56.04199981689453 -133.43299865722656,-133.43299865722656 -133.43299865722656,-133.43299865722656 C-133.43299865722656,-133.43299865722656 133.43299865722656,-133.43299865722656 133.43299865722656,-133.43299865722656 C133.43299865722656,-133.43299865722656 160.11900329589844,-56.04199981689453 160.11900329589844,-56.04199981689453 C160.11900329589844,-38.35599899291992 145.781005859375,-24.01799964904785 128.09500122070312,-24.01799964904785 C110.40899658203125,-24.01799964904785 96.0719985961914,-38.35599899291992 96.0719985961914,-56.04199981689453"/></g><g opacity="1" transform="matrix(1,0,0,1,0,0)"><path stroke-linecap="round" stroke-linejoin="round" fill-opacity="0" class="primary" stroke="rgb(0,0,0)" stroke-opacity="1" stroke-width="12.6" d=" M32.02399826049805,-56.04199981689453 C32.02399826049805,-38.35599899291992 17.68600082397461,-24.01799964904785 0,-24.01799964904785 C-17.68600082397461,-24.01799964904785 -32.02399826049805,-38.35599899291992 -32.02399826049805,-56.04199981689453"/></g><g opacity="1" transform="matrix(1,0,0,1,0,0)"><path stroke-linecap="round" stroke-linejoin="round" fill-opacity="0" class="primary" stroke="rgb(0,0,0)" stroke-opacity="1" stroke-width="12.6" d=" M26.687000274658203,-133.43299865722656 C26.687000274658203,-133.43299865722656 32.02399826049805,-56.04199981689453 32.02399826049805,-56.04199981689453 C32.02399826049805,-38.35599899291992 46.36199951171875,-24.01799964904785 64.0479965209961,-24.01799964904785 C81.73400115966797,-24.01799964904785 96.0719985961914,-38.35599899291992 96.0719985961914,-56.04199981689453 C96.0719985961914,-56.04199981689453 80.05999755859375,-133.43299865722656 80.05999755859375,-133.43299865722656"/></g><g opacity="1" transform="matrix(1,0,0,1,0,0)"><path stroke-linecap="round" stroke-linejoin="round" fill-opacity="0" class="primary" stroke="rgb(0,0,0)" stroke-opacity="1" stroke-width="12.6" d=" M-80.05999755859375,-133.43299865722656 C-80.05999755859375,-133.43299865722656 -96.0719985961914,-56.04199981689453 -96.0719985961914,-56.04199981689453 C-96.0719985961914,-38.35599899291992 -81.73400115966797,-24.01799964904785 -64.0479965209961,-24.01799964904785 C-46.36199951171875,-24.01799964904785 -32.02399826049805,-38.35599899291992 -32.02399826049805,-56.04199981689453 C-32.02399826049805,-56.04199981689453 -26.687000274658203,-133.43299865722656 -26.687000274658203,-133.43299865722656"/></g></g></g></g></svg>