<svg xmlns="http://www.w3.org/2000/svg" xmlns:xlink="http://www.w3.org/1999/xlink" viewBox="0 0 430 430" width="430" height="430" preserveAspectRatio="xMidYMid meet" style="width: 100%; height: 100%; transform: translate3d(0px, 0px, 0px); content-visibility: visible;"><defs><clipPath id="__lottie_element_3818"><rect width="430" height="430" x="0" y="0"/></clipPath><clipPath id="__lottie_element_3820"><path d="M0,0 L430,0 L430,430 L0,430z"/></clipPath><g id="__lottie_element_3833"><g transform="matrix(1,0,0,1,215,215)" opacity="1" style="display: block;"><g opacity="1" transform="matrix(1,0,0,1,0,0)"><path fill="rgb(255,0,0)" fill-opacity="1" d=" M165,-135 C135,-150 -135,-150 -165,-135 C-195,-120 -195,120 -165,135 C-135,150 135,150 165,135 C195,120 195,-120 165,-135z"/></g></g></g><mask id="__lottie_element_3833_1" mask-type="alpha"><use xmlns:ns1="http://www.w3.org/1999/xlink" ns1:href="#__lottie_element_3833"/></mask></defs><g clip-path="url(#__lottie_element_3818)"><g clip-path="url(#__lottie_element_3820)" transform="matrix(1,0,0,1,0,0)" opacity="1" style="display: block;"><g transform="matrix(-1,0,0,-1,229.5,215)" opacity="1" style="display: block;"><g opacity="1" transform="matrix(0,-1,1,0,0,0)"><path stroke-linecap="butt" stroke-linejoin="round" fill-opacity="0" class="secondary" stroke="rgb(0,0,0)" stroke-opacity="1" stroke-width="12" d=" M77,57.5 C77,57.5 0,-57.5 0,-57.5 C0,-57.5 -77,57.5 -77,57.5 C-77,57.5 77,57.5 77,57.5z"/></g></g><g mask="url(#__lottie_element_3833_1)" style="display: block;"><g transform="matrix(-1,0,0,-1,-30.5,215)" opacity="1"><g opacity="1" transform="matrix(0,-1,1,0,0,0)"><path stroke-linecap="butt" stroke-linejoin="round" fill-opacity="0" class="secondary" stroke="rgb(0,0,0)" stroke-opacity="1" stroke-width="12" d=" M77,57.5 C77,57.5 0,-57.5 0,-57.5 C0,-57.5 -77,57.5 -77,57.5 C-77,57.5 77,57.5 77,57.5z"/></g></g></g><g transform="matrix(1,0,0,1,215,215)" opacity="1" style="display: block;"><g opacity="1" transform="matrix(1,0,0,1,0,0)"><path stroke-linecap="butt" stroke-linejoin="round" fill-opacity="0" class="primary" stroke="rgb(0,0,0)" stroke-opacity="1" stroke-width="12" d=" M165,-135 C135,-150 -135,-150 -165,-135 C-195,-120 -195,120 -165,135 C-135,150 135,150 165,135 C195,120 195,-120 165,-135z"/></g></g></g></g></svg>